inDegrees=no
num_controls=7
num_derivatives=13
num_iterations=89
num_multipliers=7
num_parameters=0
num_slacks=7
num_states=26
objective=0.444945
objective_accelerations=0.058304
objective_balance=0.003365
objective_effort=0.023147
objective_height=0.354655
objective_ligament=0.005474
solver_duration=1278.696543
status=Solve_Succeeded
success=true
DataType=double
version=3
OpenSimVersion=4.5
endheader
time	/jointset/ground_pelvis/pelvis_tilt/value	/jointset/ground_pelvis/pelvis_tx/value	/jointset/ground_pelvis/pelvis_ty/value	/jointset/hip_l/hip_flexion_l/value	/jointset/hip_l/hip_adduction_l/value	/jointset/hip_l/hip_rotation_l/value	/jointset/back/lumbar_extension/value	/jointset/patellofemoral_l/patellar_flexion_l/value	/jointset/knee_l/knee_flexion_l/value	/jointset/knee_l/knee_adduction_l/value	/jointset/knee_l/knee_rotation_l/value	/jointset/ankle_l/ankle_angle_l/value	/jointset/subtalar_l/subtalar_angle_l/value	/jointset/ground_pelvis/pelvis_tilt/speed	/jointset/ground_pelvis/pelvis_tx/speed	/jointset/ground_pelvis/pelvis_ty/speed	/jointset/hip_l/hip_flexion_l/speed	/jointset/hip_l/hip_adduction_l/speed	/jointset/hip_l/hip_rotation_l/speed	/jointset/back/lumbar_extension/speed	/jointset/patellofemoral_l/patellar_flexion_l/speed	/jointset/knee_l/knee_flexion_l/speed	/jointset/knee_l/knee_adduction_l/speed	/jointset/knee_l/knee_rotation_l/speed	/jointset/ankle_l/ankle_angle_l/speed	/jointset/subtalar_l/subtalar_angle_l/speed	/forceset/tau_hip_flexion_l	/forceset/tau_hip_adduction_l	/forceset/tau_hip_rotation_l	/forceset/tau_knee_flexion_l	/forceset/tau_ankle_angle_l	/forceset/tau_subtalar_angle_l	/forceset/tau_lumbar_extension	lambda_cid13_p0	lambda_cid13_p1	lambda_cid13_p2	lambda_cid13_p3	lambda_cid13_p4	lambda_cid13_p5	lambda_cid14_p0	/jointset/ground_pelvis/pelvis_tilt/accel	/jointset/ground_pelvis/pelvis_tx/accel	/jointset/ground_pelvis/pelvis_ty/accel	/jointset/hip_l/hip_flexion_l/accel	/jointset/hip_l/hip_adduction_l/accel	/jointset/hip_l/hip_rotation_l/accel	/jointset/back/lumbar_extension/accel	/jointset/patellofemoral_l/patellar_flexion_l/accel	/jointset/knee_l/knee_flexion_l/accel	/jointset/knee_l/knee_adduction_l/accel	/jointset/knee_l/knee_rotation_l/accel	/jointset/ankle_l/ankle_angle_l/accel	/jointset/subtalar_l/subtalar_angle_l/accel	gamma_cid13_p0	gamma_cid13_p1	gamma_cid13_p2	gamma_cid13_p3	gamma_cid13_p4	gamma_cid13_p5	gamma_cid14_p0
0	-0.03791735969722152	0.06820276097405387	0.8958861474367382	0.1955287580552426	-0.3226762199469898	-0.4699365163262308	-0.1379045077516729	0.07015288079084497	0.07015288079084844	-0.174532565008582	-0.1050762000452744	-0.06701059314715049	0.002946775262917934	0	0	0	0	0	0	0	0	0	0	0	0	0	0.1100964163850248	-0.1042413395623477	-0.0291433675459972	-0.2437468237350833	0.2057272526258582	-0.01295625702045586	-0.05367532490802712	30.59303441452631	-1.884179253800482	2.425387376889376	-4.674540249872858	-515.2962648819292	-81.78796673128772	-39.58455246573393	-4.446337739553663	-1.754015595714091	-0.9772310883618909	12.57449423068596	-2.095428195490403	3.308517612901136	-2.789209032704936	10.46763398790968	10.46763398790975	0.7052650880562887	-0.9362189621617016	2.571128695502138	-0.9005842862862636	-3.368294697415884e-08	9.429195869290593e-08	1.281175690355563e-07	1.818693782204923e-08	-5.572144782585751e-08	-5.986779660417827e-08	-8.909872923356382e-09
0.01	-0.03812913774953643	0.06811603392456136	0.8958386891055355	0.1961371000418642	-0.3227794592747932	-0.4697700092924165	-0.1380504655102017	0.0706619105948999	0.07066191059491629	-0.174500684963121	-0.1051166171146843	-0.06688699558860495	0.002900683955203022	-0.04212887407146099	-0.01728988860037378	-0.009463597568611752	0.1211532963475091	-0.02055231046057607	0.0331928916050831	-0.02898864143591915	0.1014049521173265	0.1014049521173315	0.006367858396101229	-0.008030164049294757	0.02461162560767538	-0.009173581955196601	0.1051439211740314	-0.1015075204932284	-0.02811646550560258	-0.2368497747514848	0.1965583067546384	-0.01100749603485921	-0.04961731102849477	27.6949841895355	-2.317204057756472	2.601913904209875	-3.189891060003003	-515.9905176111038	-82.61003036192828	-39.5949679010232	-4.062160995148977	-1.708143659772371	-0.9267249346530483	11.80847197060164	-2.020827993786491	3.30838202374554	-2.923255158732918	9.916776301562413	9.916776301563337	0.6013549824220831	-0.7284133630960907	2.389997279536754	-0.9190727382390448	-7.023549086276534e-08	1.461089384120067e-07	2.118027529601727e-07	5.18142217587948e-08	-2.63022992096066e-07	-1.094243497918547e-07	-1.302842127538913e-08
0.02	-0.038755404293404	0.06785807435555084	0.8956974346299381	0.1979415199187203	-0.3230853608116895	-0.4692748319246555	-0.1384802223750289	0.07217296001570866	0.07217296001570779	-0.1744053645800935	-0.1052357354719363	-0.06652051821675452	0.002764191310315597	-0.08289769831117735	-0.03424650390360196	-0.0187592288789388	0.239215578047765	-0.04053244181896278	0.06573406678751159	-0.05675982125975142	0.200403923351381	0.2004039233513967	0.01268806747359288	-0.01574025756989729	0.04857596266080989	-0.01808026743450633	0.1001914259628955	-0.09877370142412348	-0.02708956346528671	-0.2299527257680019	0.187389360883356	-0.009058735049311293	-0.04555929714901308	24.86188396582467	-2.763098731064773	2.78220404047487	-1.875455427229873	-515.7410634417896	-83.26824933024341	-39.6256606063959	-4.174327773204868	-1.687360936284857	-0.9436378367049646	11.95629130123524	-1.980992375052689	3.17817432837021	-2.545716710287618	9.986437811255268	9.986437811256469	0.6957352243340261	-0.8722048564232465	2.441670984594046	-0.8472049911090159	-1.067880347513718e-07	1.979259181311075e-07	2.954879368847891e-07	8.544150569554037e-08	-4.703245363662744e-07	-1.589809029795311e-07	-1.714696962742189e-08
0.03	-0.0397836208340076	0.06743277725491688	0.8954637926088698	0.2009116433894538	-0.3235879377290616	-0.4684581129028456	-0.1391802180005197	0.07466188084477468	0.07466188084476963	-0.1742468966067699	-0.1054308013503137	-0.06591710497893154	0.002540529268140795	-0.1225603396054028	-0.05069842288115626	-0.02795908746207547	0.3542357823178854	-0.05986260928500254	0.09746092386274134	-0.0829649258394192	0.2969057265163512	0.2969057265163488	0.01898595292758216	-0.02322085291066479	0.0720282111130932	-0.02656590751350725	0.09614206017418582	-0.09687577563073226	-0.02649326194878521	-0.2268227433505431	0.1838224181711698	-0.007889268990689624	-0.04207095031221945	23.79368919036013	-3.117619481558602	2.87716583987531	-1.967430345363588	-515.7438825920086	-83.46161487705874	-39.67541283797014	-3.834454818186522	-1.606916152777648	-0.906741590721176	11.18886422221898	-1.891035854356849	3.147581524620485	-2.61675063212088	9.410877623305533	9.410877623302357	0.5939475231273312	-0.6781421916714088	2.285230541805362	-0.8363731613085666	-1.372884287573455e-07	2.069012033249542e-07	3.510647490486709e-07	1.150484779955002e-07	-6.52858722356009e-07	-2.00851341118956e-07	-2.16065421070093e-08
